<svg xmlns="http://www.w3.org/2000/svg" version="1.1" xmlns:xlink="http://www.w3.org/1999/xlink" xmlns:svgjs="http://svgjs.dev/svgjs" width="1500" height="390" viewBox="0 0 1500 390"><g transform="matrix(1,0,0,1,-0.9090909090909918,0.17537579962140626)"><svg viewBox="0 0 396 103" data-background-color="#ffffff" preserveAspectRatio="xMidYMid meet" height="390" width="1500" xmlns="http://www.w3.org/2000/svg" xmlns:xlink="http://www.w3.org/1999/xlink"><g id="tight-bounds" transform="matrix(1,0,0,1,0.2400000000000091,-0.04631719836154957)"><svg viewBox="0 0 395.52 103.09263439672308" height="103.09263439672308" width="395.52"><g><svg viewBox="0 0 569.2374963608306 148.37225196509178" height="103.09263439672308" width="395.52"><g transform="matrix(1,0,0,1,173.71749636083058,20.50586116160097)"><svg viewBox="0 0 395.52 107.36052964188984" height="107.36052964188984" width="395.52"><g id="textblocktransform"><svg viewBox="0 0 395.52 107.36052964188984" height="107.36052964188984" width="395.52" id="textblock"><g><svg viewBox="0 0 395.52 107.36052964188984" height="107.36052964188984" width="395.52"><g transform="matrix(1,0,0,1,0,0)"><svg width="395.52" viewBox="1.65 -36.5 166.14 45.1" height="107.36052964188984" data-palette-color="#82d6e5"><path d="M10.15 0L5.25 0 5.25-35.85 15.45-35.85Q19.7-35.85 22.6-34.73 25.5-33.6 27.03-31.4 28.55-29.2 28.55-25.9L28.55-25.9Q28.55-23.3 27.48-21.25 26.4-19.2 24.43-17.8 22.45-16.4 19.75-15.75L19.75-15.75Q20.55-15.3 21.35-14.25L21.35-14.25 31.8 0 27.5 0Q26.15 0 25.55-1.05L25.55-1.05 16.25-13.85Q15.8-14.45 15.3-14.7 14.8-14.95 13.8-14.95L13.8-14.95 10.15-14.95 10.15 0ZM10.15-32L10.15-18.5 15.2-18.5Q19.25-18.5 21.55-20.35 23.85-22.2 23.85-25.55L23.85-25.55Q23.85-28.75 21.73-30.38 19.6-32 15.45-32L15.45-32 10.15-32ZM28.15-3.9L27.6 0 25.2-4.55 28.15-3.9ZM6.75 0L1.65 0 1.65-2.05Q1.65-2.5 1.85-2.78 2.05-3.05 2.45-3.1L2.45-3.1 6.2-3.9 6.75 0ZM1.65-35.85L6.75-35.85 6.2-31.95 2.45-32.75Q2.05-32.85 1.85-33.1 1.65-33.35 1.65-33.8L1.65-33.8 1.65-35.85ZM13.75 0L8.65 0 9.2-3.9 12.95-3.1Q13.35-3.05 13.55-2.78 13.75-2.5 13.75-2.05L13.75-2.05 13.75 0ZM32.7 0L27.6 0 28.15-3.9 31.9-3.1Q32.3-3.05 32.5-2.78 32.7-2.5 32.7-2.05L32.7-2.05 32.7 0ZM46.15 0.35L46.15 0.35Q42.5 0.35 39.77-1.3 37.05-2.95 35.55-6 34.05-9.05 34.05-13.2L34.05-13.2Q34.05-16.75 35.5-19.6 36.95-22.45 39.62-24.1 42.3-25.75 45.9-25.75L45.9-25.75Q49.05-25.75 51.4-24.35 53.75-22.95 55.07-20.43 56.4-17.9 56.4-14.4L56.4-14.4Q56.4-13.35 56.17-13 55.95-12.65 55.3-12.65L55.3-12.65 38.45-12.65Q38.45-12.5 38.45-12.33 38.45-12.15 38.45-12L38.45-12Q38.7-7.8 40.8-5.48 42.9-3.15 46.5-3.15L46.5-3.15Q48.05-3.15 49.57-3.78 51.1-4.4 52.27-5 53.45-5.6 53.95-5.6L53.95-5.6Q54.5-5.6 54.8-5.2L54.8-5.2 56.05-3.55Q55.05-2.25 53.37-1.38 51.7-0.5 49.8-0.08 47.9 0.35 46.15 0.35ZM38.6-15.45L38.6-15.45 52.4-15.45Q52.4-18.55 50.7-20.5 49-22.45 46-22.45L46-22.45Q42.75-22.45 40.9-20.6 39.05-18.75 38.6-15.45ZM67.55 0L63.1 0 63.1-25.35 65.75-25.35Q66.75-25.35 66.95-24.4L66.95-24.4 67.3-21.65Q68.95-23.5 71-24.63 73.05-25.75 75.7-25.75L75.7-25.75Q78.5-25.75 80.37-24.55 82.25-23.35 83.22-21.18 84.2-19 84.2-16.15L84.2-16.15 84.2 0 79.75 0 79.75-16.15Q79.75-19 78.42-20.6 77.09-22.2 74.4-22.2L74.4-22.2Q72.45-22.2 70.72-21.25 69-20.3 67.55-18.65L67.55-18.65 67.55 0ZM64.59 0L59.5 0 59.5-2.05Q59.5-2.5 59.7-2.78 59.9-3.05 60.3-3.1L60.3-3.1 64.05-3.9 64.59 0ZM71.15 0L66.05 0 66.59-3.9 70.34-3.1Q70.75-3.05 70.95-2.78 71.15-2.5 71.15-2.05L71.15-2.05 71.15 0ZM87.8 0L82.7 0 83.25-3.9 87-3.1Q87.4-3.05 87.59-2.78 87.8-2.5 87.8-2.05L87.8-2.05 87.8 0ZM59.5-25.35L64.59-25.35 64.05-21.45 60.3-22.25Q59.9-22.35 59.7-22.6 59.5-22.85 59.5-23.3L59.5-23.3 59.5-25.35ZM99.34 0.4L99.34 0.4Q96.34 0.4 94.72-1.28 93.09-2.95 93.09-6.1L93.09-6.1 93.09-21.6 90.04-21.6Q89.64-21.6 89.37-21.85 89.09-22.1 89.09-22.6L89.09-22.6 89.09-24.35 93.24-24.9 94.29-32.7Q94.39-33.55 95.29-33.55L95.29-33.55 97.54-33.55 97.54-24.85 104.79-24.85 104.79-21.6 97.54-21.6 97.54-6.4Q97.54-4.8 98.32-4.03 99.09-3.25 100.34-3.25L100.34-3.25Q100.89-3.25 101.54-3.55 102.19-3.85 102.74-4.15 103.29-4.45 103.54-4.45L103.54-4.45Q103.89-4.45 104.14-4.05L104.14-4.05 105.44-1.9Q104.29-0.85 102.67-0.23 101.04 0.4 99.34 0.4ZM116.04 0L111.59 0 111.59-25.35 116.04-25.35 116.04 0ZM113.09 0L107.99 0 107.99-2.05Q107.99-2.5 108.19-2.78 108.39-3.05 108.79-3.1L108.79-3.1 112.54-3.9 113.09 0ZM119.64 0L114.54 0 115.09-3.9 118.84-3.1Q119.24-3.05 119.44-2.78 119.64-2.5 119.64-2.05L119.64-2.05 119.64 0ZM107.99-25.35L113.09-25.35 112.54-21.45 108.79-22.25Q108.39-22.35 108.19-22.6 107.99-22.85 107.99-23.3L107.99-23.3 107.99-25.35ZM113.74-30.15L113.74-30.15Q112.49-30.15 111.54-31.1 110.59-32.05 110.59-33.3L110.59-33.3Q110.59-34.6 111.54-35.55 112.49-36.5 113.74-36.5L113.74-36.5Q115.04-36.5 115.99-35.55 116.94-34.6 116.94-33.3L116.94-33.3Q116.94-32.05 115.99-31.1 115.04-30.15 113.74-30.15ZM130.19 0L125.69 0 125.69-21.55 122.89-21.85Q122.39-22 122.04-22.25 121.69-22.5 121.69-23L121.69-23 121.69-24.85 125.69-24.85 125.69-27.3Q125.69-31.6 128.04-33.98 130.39-36.35 134.39-36.35L134.39-36.35Q135.24-36.35 136.04-36.23 136.84-36.1 137.54-35.85L137.54-35.85 137.44-33.65Q137.39-33.2 137.16-33.08 136.94-32.95 136.59-32.95L136.59-32.95Q136.24-32.95 135.89-32.95 135.54-32.95 135.14-32.95L135.14-32.95Q132.64-32.95 131.34-31.58 130.04-30.2 130.04-27.15L130.04-27.15 130.04-24.85 137.34-24.85 137.34-21.6 130.19-21.6 130.19 0ZM127.19 0L122.09 0 122.09-2.05Q122.09-2.5 122.29-2.78 122.49-3.05 122.89-3.1L122.89-3.1 126.64-3.9 127.19 0ZM133.79 0L128.69 0 129.24-3.9 132.99-3.1Q133.39-3.05 133.59-2.78 133.79-2.5 133.79-2.05L133.79-2.05 133.79 0ZM150.49 8.6L147.19 8.6 151.79-1.5 141.34-25.35 145.19-25.35Q145.79-25.35 146.11-25.05 146.44-24.75 146.59-24.4L146.59-24.4 153.34-8.45Q153.49-8.1 153.69-7.45 153.89-6.8 154.04-6.25L154.04-6.25Q154.14-6.65 154.24-7 154.34-7.35 154.49-7.73 154.64-8.1 154.79-8.5L154.79-8.5 161.34-24.4Q161.49-24.8 161.86-25.08 162.24-25.35 162.64-25.35L162.64-25.35 166.19-25.35 152.09 7.5Q151.89 8 151.54 8.3 151.19 8.6 150.49 8.6L150.49 8.6ZM148.29-24.1L144.54-24.1 144.54-25.35 148.29-25.35 148.29-24.1ZM163.79-24.1L160.04-24.1 160.04-25.35 163.79-25.35 163.79-24.1ZM139.74-25.35L144.84-25.35 144.29-21.45 140.54-22.25Q140.14-22.35 139.94-22.6 139.74-22.85 139.74-23.3L139.74-23.3 139.74-25.35ZM145.99-25.35L151.09-25.35 151.09-23.3Q151.09-22.85 150.89-22.6 150.69-22.35 150.29-22.25L150.29-22.25 146.54-21.45 145.99-25.35ZM156.44-25.35L161.54-25.35 160.99-21.45 157.24-22.25Q156.84-22.35 156.64-22.6 156.44-22.85 156.44-23.3L156.44-23.3 156.44-25.35ZM162.69-25.35L167.79-25.35 167.79-23.3Q167.79-22.85 167.59-22.6 167.39-22.35 166.99-22.25L166.99-22.25 163.24-21.45 162.69-25.35Z" opacity="1" transform="matrix(1,0,0,1,0,0)" fill="#82d6e5" class="wordmark-text-0" data-fill-palette-color="primary" id="text-0"></path></svg></g></svg></g></svg></g></svg></g><g><svg viewBox="0 0 148.37225196509178 148.37225196509178" height="148.37225196509178" width="148.37225196509178"><g data-palette-color="#1ebbd7"><rect width="40.555082203791756" height="148.37225196509178" fill="#1ebbd7" stroke="transparent" data-fill-palette-color="accent" x="0" fill-opacity="0.5"></rect><rect width="40.555082203791756" height="148.37225196509178" fill="#1ebbd7" stroke="transparent" data-fill-palette-color="accent" x="49.457417321697264" fill-opacity="0.75"></rect><rect width="40.555082203791756" height="148.37225196509178" fill="#1ebbd7" stroke="transparent" data-fill-palette-color="accent" x="98.91483464339453" fill-opacity="1"></rect></g></svg></g></svg></g><defs></defs></svg><rect width="395.52" height="103.09263439672308" fill="none" stroke="none" visibility="hidden"></rect></g></svg></g></svg>